<svg xmlns="http://www.w3.org/2000/svg" width="1084" height="777" viewBox="0 0 1084 777" version="1.1"><path d="M 118.332 187.578 C 118.056 188.296, 118.042 189.697, 118.299 190.692 C 118.671 192.124, 118.792 192.032, 118.884 190.250 C 118.995 188.096, 119.395 187.995, 128.250 187.883 C 133.338 187.819, 140.425 187.424, 144 187.005 C 149.013 186.419, 146.877 186.248, 134.666 186.259 C 122.575 186.270, 118.714 186.581, 118.332 187.578 M 158.750 186.743 C 162.738 186.932, 169.262 186.932, 173.250 186.743 C 177.238 186.553, 173.975 186.397, 166 186.397 C 158.025 186.397, 154.762 186.553, 158.750 186.743 M 188.750 186.743 C 192.738 186.932, 199.262 186.932, 203.250 186.743 C 207.238 186.553, 203.975 186.397, 196 186.397 C 188.025 186.397, 184.762 186.553, 188.750 186.743 M 218.206 186.741 C 221.895 186.932, 228.195 186.934, 232.206 186.743 C 236.218 186.553, 233.200 186.396, 225.500 186.395 C 217.800 186.393, 214.518 186.549, 218.206 186.741 M 245.250 186.728 C 247.313 186.944, 249 187.432, 249 187.813 C 249 188.735, 120.698 317, 119.776 317 C 119.381 317, 118.918 311.038, 118.747 303.750 L 118.437 290.500 118.218 305.497 L 118 320.494 184.442 254.058 C 220.985 217.518, 250.659 187.257, 250.383 186.811 C 250.107 186.365, 247.996 186.076, 245.691 186.168 L 241.500 186.336 245.250 186.728 M 312.250 186.739 C 315.413 186.937, 320.587 186.937, 323.750 186.739 C 326.913 186.541, 324.325 186.378, 318 186.378 C 311.675 186.378, 309.087 186.541, 312.250 186.739 M 335.776 186.733 C 338.128 186.945, 341.728 186.942, 343.776 186.727 C 345.824 186.512, 343.900 186.339, 339.500 186.343 C 335.100 186.346, 333.424 186.522, 335.776 186.733 M 408.250 186.728 C 410.313 186.944, 413.688 186.944, 415.750 186.728 C 417.813 186.513, 416.125 186.336, 412 186.336 C 407.875 186.336, 406.188 186.513, 408.250 186.728 M 427.789 186.741 C 431.248 186.937, 436.648 186.936, 439.789 186.738 C 442.930 186.540, 440.100 186.380, 433.500 186.382 C 426.900 186.384, 424.330 186.546, 427.789 186.741 M 234.168 301.200 C 147.032 388.198, 119.621 415.013, 118.933 413.926 C 118.240 412.831, 118.027 413.023, 118.015 414.750 C 118.007 415.988, 118.338 417, 118.752 417 C 119.165 417, 171.252 365.250, 234.500 302 C 297.748 238.750, 349.272 187.011, 348.998 187.024 C 348.724 187.037, 297.051 238.416, 234.168 301.200 M 396.971 193.750 L 390.500 200.500 397.250 194.029 C 403.520 188.018, 404.457 187, 403.721 187 C 403.568 187, 400.530 190.037, 396.971 193.750 M 282.668 350.700 C 158.621 474.611, 119.621 513.013, 118.933 511.926 C 118.240 510.831, 118.027 511.023, 118.015 512.750 C 118.007 513.987, 118.338 515, 118.751 515 C 119.164 515, 193.076 441.425, 283 351.500 C 372.924 261.575, 446.273 188.011, 445.999 188.024 C 445.724 188.037, 372.226 261.242, 282.668 350.700 M 370.481 220.250 L 360.500 230.500 370.750 220.519 C 376.387 215.029, 381 210.417, 381 210.269 C 381 209.545, 379.752 210.730, 370.481 220.250 M 465.975 222.750 L 458.500 230.500 466.218 223.057 L 473.935 215.614 474.251 228.057 L 474.568 240.500 474.784 227.750 C 474.903 220.738, 474.651 215, 474.225 215 C 473.799 215, 470.086 218.488, 465.975 222.750 M 262.469 230.250 L 256.500 236.500 262.750 230.531 C 268.556 224.987, 269.458 224, 268.719 224 C 268.564 224, 265.751 226.813, 262.469 230.250 M 340.481 250.250 L 330.500 260.500 340.750 250.519 C 346.387 245.029, 351 240.417, 351 240.269 C 351 239.545, 349.752 240.730, 340.481 250.250 M 231.473 261.250 L 224.500 268.500 231.750 261.527 C 235.738 257.692, 239 254.429, 239 254.277 C 239 253.543, 237.950 254.516, 231.473 261.250 M 291.494 299.250 L 262.500 328.500 291.750 299.506 C 307.837 283.560, 321 270.398, 321 270.256 C 321 269.550, 318.438 272.067, 291.494 299.250 M 250.481 340.250 L 240.500 350.500 250.750 340.519 C 256.387 335.029, 261 330.417, 261 330.269 C 261 329.545, 259.752 330.730, 250.481 340.250 M 737.385 343.558 C 727.228 347.306, 720.903 356.481, 721.147 367.110 L 721.293 373.500 721.964 366.500 C 722.779 358, 724.527 354.467, 730.528 349.184 C 736.016 344.354, 742.300 342.606, 748.871 344.082 C 754.111 345.260, 759.929 348.138, 762.133 350.644 C 764.365 353.180, 767.982 360.521, 768.079 362.710 C 768.125 363.743, 768.370 363.975, 768.659 363.259 C 769.558 361.034, 766.837 354.826, 763.198 350.797 C 756.438 343.315, 745.986 340.384, 737.385 343.558 M 923.500 342.987 C 929.550 343.412, 935.768 344.264, 937.318 344.881 C 942.523 346.952, 946.932 351.161, 949.592 356.598 C 954.739 367.118, 951.500 379.332, 941.876 385.701 C 937.471 388.616, 927.771 390.226, 919.790 389.366 L 914.080 388.751 913.741 381.125 L 913.402 373.500 913.201 382.358 L 913 391.216 924.250 390.813 C 933.209 390.492, 936.317 389.982, 939.513 388.306 C 957.959 378.632, 957.728 353.546, 939.108 344.302 C 936.341 342.928, 932.820 342.476, 924 342.363 L 912.500 342.215 923.500 342.987 M 224.487 366.250 L 210.500 380.500 224.750 366.513 C 232.588 358.821, 239 352.408, 239 352.263 C 239 351.547, 237.480 353.012, 224.487 366.250 M 767.730 372.516 C 767.392 374.157, 765.748 377.639, 764.078 380.253 C 761.041 385.005, 756.461 387.942, 749.500 389.604 C 747.533 390.073, 747.078 390.458, 748.177 390.719 C 751.190 391.437, 759.969 386.854, 763.514 382.713 C 767.006 378.633, 769.489 372.967, 768.752 370.757 C 768.528 370.083, 768.067 370.874, 767.730 372.516 M 722.040 374.554 C 722.018 375.134, 723.315 377.682, 724.922 380.217 C 728.256 385.473, 734.940 389.867, 740.674 390.571 L 744.500 391.041 740.500 389.688 C 732.002 386.815, 727.044 382.933, 723.659 376.500 C 722.791 374.850, 722.062 373.974, 722.040 374.554 M 175.992 414.750 L 151.500 439.500 176.250 415.008 C 189.863 401.537, 201 390.399, 201 390.258 C 201 389.549, 198.752 391.751, 175.992 414.750 M 282.481 406.250 L 272.500 416.500 282.756 406.513 C 292.506 397.018, 293.122 396.595, 295.256 397.924 C 297.309 399.203, 297.383 399.180, 296.128 397.661 C 295.373 396.747, 294.239 396, 293.609 396 C 292.978 396, 287.971 400.613, 282.481 406.250 M 128.984 461.750 L 117.500 473.500 129.250 462.016 C 140.164 451.350, 141.454 450, 140.734 450 C 140.587 450, 135.300 455.288, 128.984 461.750 M 231 457.500 C 226.903 461.625, 223.775 465, 224.050 465 C 224.325 465, 227.903 461.625, 232 457.500 C 236.097 453.375, 239.225 450, 238.950 450 C 238.675 450, 235.097 453.375, 231 457.500 M 187.473 501.220 L 180.500 508.440 187.653 501.720 C 191.587 498.024, 195.399 495, 196.124 495 C 196.849 495, 200.155 497.587, 203.471 500.750 L 209.500 506.500 203.531 500.250 C 200.249 496.813, 196.861 494, 196.004 494 C 195.148 494, 191.308 497.249, 187.473 501.220 M 164.487 524.250 L 150.500 538.500 164.750 524.513 C 172.588 516.821, 179 510.408, 179 510.263 C 179 509.547, 177.480 511.012, 164.487 524.250 M 227.889 525.399 C 236.220 534.143, 242.766 541.568, 242.436 541.899 C 242.106 542.229, 220.160 542.739, 193.668 543.032 L 145.500 543.564 195.872 543.782 C 243.475 543.988, 246.169 543.905, 244.872 542.273 C 244.118 541.322, 236.579 533.560, 228.121 525.023 L 212.742 509.500 227.889 525.399 M 730.202 523.250 L 730.500 529.500 740.597 529.500 C 752.073 529.500, 754 528.630, 754 523.449 C 754 517.846, 752.213 517, 740.381 517 L 729.905 517 730.202 523.250 M 731 523.619 L 731 529.239 740.397 528.828 C 750.480 528.387, 753 527.311, 753 523.449 C 753 519.016, 750.657 518, 740.429 518 L 731 518 731 523.619 M 432.857 535.131 C 437.815 540.274, 439.771 542.938, 438.857 543.302 C 437.918 543.676, 438.039 543.866, 439.250 543.921 C 440.212 543.964, 441 543.651, 441 543.225 C 441 542.799, 437.512 539.086, 433.250 534.975 L 425.500 527.500 432.857 535.131 M 648.244 539.252 C 646.454 544.338, 644.991 548.837, 644.994 549.250 C 644.997 549.663, 648.263 549.912, 652.250 549.804 L 659.500 549.608 652.750 549.258 C 649.038 549.066, 646 548.721, 646 548.492 C 646 548.128, 646.898 545.632, 651.200 534.034 C 651.958 531.991, 652.293 531.819, 653.152 533.034 C 653.991 534.220, 654.075 534.150, 653.594 532.668 C 653.267 531.661, 653 530.648, 653 530.418 C 653 530.188, 652.663 530.001, 652.250 530.002 C 651.837 530.003, 650.035 534.165, 648.244 539.252 M 337.348 537.634 C 340.700 541.184, 341.780 542.934, 340.848 543.305 C 339.925 543.673, 340.052 543.867, 341.250 543.921 C 344.047 544.047, 343.343 542.749, 337.750 537.462 L 332.500 532.500 337.348 537.634 M 730.193 557.750 L 730.385 565.500 730.746 559.038 C 730.944 555.484, 731.588 551.997, 732.176 551.288 C 732.973 550.327, 732.833 550, 731.622 550 C 730.249 550, 730.030 551.189, 730.193 557.750 M 748.220 550.734 C 751.840 551.020, 753.412 551.708, 754.970 553.688 C 756.086 555.108, 757 555.759, 757 555.135 C 757 552.264, 753.002 550, 748.250 550.180 L 743.500 550.360 748.220 550.734 M 736.280 565.736 C 738.909 565.943, 742.959 565.940, 745.280 565.731 C 747.601 565.521, 745.450 565.352, 740.500 565.355 C 735.550 565.358, 733.651 565.530, 736.280 565.736" stroke="none" fill="#b4beee" fill-rule="evenodd"/><path d="M 74 365.665 L 74 588.331 203.750 587.666 C 275.113 587.300, 375.237 587.001, 426.250 587 L 519 587 519 365 L 519 143 296.500 143 L 74 143 74 365.665 M 542 192 L 542 237 553 237 L 564 237 564.006 226.250 L 564.013 215.500 568.173 210.646 C 572.221 205.923, 572.377 205.845, 573.917 207.774 C 574.788 208.865, 580.177 215.887, 585.894 223.379 L 596.288 237 610.166 237 L 624.043 237 605.457 212.430 C 593.008 195.973, 587.163 187.470, 587.755 186.680 C 588.242 186.031, 593.815 178.975, 600.142 171 C 614.958 152.322, 617 149.555, 617 148.156 C 617 146.660, 594.694 146.558, 591.922 148.042 C 590.852 148.615, 584.606 155.548, 578.042 163.449 C 571.479 171.350, 565.634 178.108, 565.054 178.466 C 564.332 178.913, 564 174.063, 564 163.059 L 564 147 553 147 L 542 147 542 192 M 118.611 186.722 C 118.275 187.058, 118 217.295, 118 253.914 L 118 320.494 184.442 254.058 C 220.985 217.518, 250.675 187.282, 250.418 186.868 C 249.867 185.975, 119.502 185.831, 118.611 186.722 M 212.515 280.668 L 118 375.296 118 396.148 C 118 407.617, 118.338 417, 118.752 417 C 119.165 417, 171.186 365.316, 234.354 302.146 C 313.388 223.110, 348.740 187.114, 347.717 186.722 C 346.899 186.408, 337.409 186.126, 326.629 186.095 L 307.029 186.039 212.515 280.668 M 261.261 329.314 L 118.021 472.500 118.011 493.750 C 118.005 505.438, 118.338 515, 118.751 515 C 120.426 515, 446.224 188.171, 445.583 187.134 C 445.123 186.389, 438.370 186.049, 424.701 186.080 L 404.500 186.127 261.261 329.314 M 397.499 291.001 L 321.503 367.002 398.252 443.750 L 475 520.498 475 367.749 C 475 283.737, 474.661 215, 474.248 215 C 473.834 215, 439.297 249.200, 397.499 291.001 M 574.634 321.525 C 561.389 324.869, 547.676 335.913, 542.365 347.513 C 526.802 381.508, 557.370 420.216, 593.776 412.616 C 597.777 411.780, 603.296 409.875, 606.039 408.382 C 612.113 405.076, 622.528 395.813, 624.535 391.931 L 626.004 389.091 619.179 385.104 C 607.155 378.082, 607.349 378.121, 604.065 382.105 C 600.454 386.486, 592.873 390.622, 586.816 391.516 C 582.934 392.089, 581.138 391.752, 576.316 389.547 C 565.376 384.543, 560.574 377.666, 560.574 367 C 560.574 352.964, 570.959 342.578, 585 342.571 C 592.597 342.567, 596.464 344.258, 602.805 350.359 L 607.109 354.500 616.488 349.571 L 625.866 344.642 624.470 341.941 C 622.079 337.319, 618.191 333.321, 612.249 329.377 C 600.525 321.595, 586.201 318.605, 574.634 321.525 M 736.253 321.005 C 723.151 323.751, 709.340 334.442, 703.507 346.355 C 688.166 377.688, 710.950 413.591, 746 413.316 C 774.452 413.093, 796.486 386.481, 791.059 358.896 C 786.735 336.915, 770.124 322.325, 747.500 320.637 C 743.650 320.350, 738.589 320.515, 736.253 321.005 M 637.667 321.667 C 637.300 322.033, 637 342.508, 637 367.167 L 637 412 666.036 412 L 695.072 412 694.786 402.250 L 694.500 392.500 677.830 392 C 668.662 391.725, 660.787 391.126, 660.330 390.668 C 659.874 390.210, 659.356 374.348, 659.180 355.418 L 658.860 321 648.597 321 C 642.952 321, 638.033 321.300, 637.667 321.667 M 803.431 322.320 C 803.137 323.084, 803.033 338.513, 803.199 356.605 L 803.500 389.500 806.422 394.774 C 810.428 402.005, 817.392 408.255, 824.338 410.854 C 833.012 414.099, 847.519 413.903, 854.959 410.439 C 863.096 406.652, 868.481 401.757, 871.682 395.239 L 874.500 389.500 874.820 355.250 L 875.140 321 864.729 321 L 854.318 321 853.712 352.466 C 853.337 371.960, 852.695 384.702, 852.024 385.955 C 848.148 393.198, 830.957 393.051, 826.780 385.740 C 825.848 384.110, 825.364 375.059, 825 352.500 L 824.500 321.500 814.232 321.215 C 806.191 320.991, 803.849 321.231, 803.431 322.320 M 890.750 321.565 C 890.337 321.988, 890 342.508, 890 367.167 L 890 412 911.364 412 C 923.113 412, 935.151 411.548, 938.114 410.995 C 950.706 408.645, 965.143 398.173, 970.294 387.651 C 974.046 379.990, 975.344 372.936, 974.732 363.540 C 973.812 349.412, 968.062 338.723, 957.003 330.581 C 946.403 322.777, 942.018 321.805, 915 321.266 C 902.075 321.008, 891.163 321.143, 890.750 321.565 M 737.385 343.558 C 731.675 345.666, 725.918 350.872, 723.133 356.448 C 719.753 363.217, 720.339 372.778, 724.552 379.593 C 734.813 396.190, 760.091 394.131, 767.769 376.073 C 769.782 371.339, 769.698 362.467, 767.594 357.500 C 762.690 345.928, 748.593 339.422, 737.385 343.558 M 913 366.522 L 913 391.216 924.250 390.813 C 933.209 390.492, 936.317 389.982, 939.513 388.306 C 954.732 380.324, 957.966 360.911, 946.012 349.296 C 940.279 343.726, 936.677 342.546, 924.250 342.169 L 913 341.828 913 366.522 M 282.492 406.008 L 272.522 416.016 336.508 480.008 L 400.494 544 420.747 544 C 431.886 544, 441 543.661, 441 543.247 C 441 542.092, 294.636 396, 293.479 396 C 292.920 396, 287.976 400.504, 282.492 406.008 M 233.500 455.027 L 223.500 464.970 262.995 504.485 L 302.491 544 322.745 544 C 333.885 544, 343 543.661, 343 543.246 C 343 542.077, 245.622 444.995, 244.496 445.042 C 243.948 445.065, 239 449.558, 233.500 455.027 M 170 518.751 L 145.500 543.500 170.750 543.767 C 184.638 543.914, 207.363 543.914, 221.250 543.767 L 246.500 543.500 222.006 518.750 C 208.535 505.137, 196.835 494, 196.006 494.001 C 195.178 494.002, 183.475 505.139, 170 518.751 M 810.383 494.949 C 791.323 499.499, 782.553 518.956, 792.308 535.049 C 796.124 541.343, 800.912 544.296, 816.446 549.935 C 822.328 552.070, 828.009 554.603, 829.070 555.563 C 831.760 557.998, 831.479 561.478, 828.399 563.901 C 822.111 568.847, 812.857 567.329, 806.251 560.267 L 802.002 555.724 793.884 560.612 C 789.419 563.300, 785.550 566.051, 785.286 566.725 C 783.898 570.264, 794.056 580.733, 802.880 584.856 C 807.821 587.165, 809.769 587.483, 819 587.491 C 831.645 587.502, 837.825 585.666, 844.281 579.984 C 856.717 569.037, 855.698 549.353, 842.187 539.515 C 839.609 537.638, 832.137 533.980, 825.583 531.385 C 809.781 525.128, 807.130 522.403, 812.635 518.073 C 817.385 514.336, 823.988 515.692, 829.306 521.497 L 832.524 525.010 840.063 520.597 C 850.687 514.378, 850.989 513.881, 847.282 508.714 C 839.355 497.662, 823.614 491.790, 810.383 494.949 M 542 539.566 C 542 567.684, 542.367 583.817, 543.035 585.066 C 544.020 586.906, 545.405 587, 571.535 587 L 599 587 599 576.500 L 599 566 581.500 566 L 564 566 564 531 L 564 496 553 496 L 542 496 542 539.566 M 637.999 501.720 C 631.272 519.664, 610.960 576.296, 609.637 580.797 C 608.395 585.023, 608.339 586.193, 609.361 586.585 C 610.066 586.856, 615.110 586.947, 620.571 586.788 L 630.500 586.500 633.500 578.753 L 636.500 571.007 652.178 571.003 L 667.856 571 669.994 576.750 C 673.887 587.221, 673.552 587, 685.523 587 C 693.943 587, 696 586.719, 696 585.569 C 696 583.654, 687.291 558.700, 674.687 524.500 L 664.367 496.500 652.267 496.220 L 640.166 495.940 637.999 501.720 M 708.240 541.250 L 708.500 586.500 732 586.175 C 759.797 585.791, 762.984 585.112, 770.024 578.071 C 775.562 572.533, 778 566.228, 778 557.442 C 778 552.361, 777.376 550, 774.544 544.374 C 771.165 537.660, 771.120 537.412, 772.532 533.253 C 775.037 525.877, 775.308 521.573, 773.634 515.812 C 771.482 508.412, 767.061 502.649, 760.764 499.038 L 755.500 496.019 731.740 496.009 L 707.980 496 708.240 541.250 M 730.202 523.250 L 730.500 529.500 740.597 529.500 C 752.073 529.500, 754 528.630, 754 523.449 C 754 517.846, 752.213 517, 740.381 517 L 729.905 517 730.202 523.250 M 648.244 539.252 C 646.454 544.338, 644.991 548.837, 644.994 549.250 C 644.997 549.663, 648.150 550, 652 550 C 656.875 550, 659 549.626, 659 548.769 C 659 546.875, 652.807 530, 652.113 530.002 C 651.776 530.003, 650.035 534.165, 648.244 539.252 M 730 557.481 C 730 564.702, 730.090 564.985, 732.598 565.614 C 734.027 565.973, 739.292 566.033, 744.297 565.747 C 754.631 565.158, 757 563.599, 757 557.389 C 757 551.113, 754.665 550, 741.500 550 L 730 550 730 557.481" stroke="none" fill="#5c70db" fill-rule="evenodd"/></svg>