<svg xmlns="http://www.w3.org/2000/svg" width="1426" height="681" viewBox="0 0 1426 681" version="1.1"><path d="M 108.003 293.411 L 53.507 348.500 108.753 293.503 C 139.139 263.255, 164 238.393, 164 238.253 C 164 237.021, 155.659 245.237, 108.003 293.411 M 96.477 432.250 L 88.500 440.500 96.750 432.523 C 101.287 428.136, 105 424.424, 105 424.273 C 105 423.544, 103.885 424.588, 96.477 432.250 M 66.978 461.750 L 58.500 470.500 67.250 462.022 C 75.377 454.148, 76.456 453, 75.728 453 C 75.578 453, 71.641 456.938, 66.978 461.750 M 782.224 510.966 C 784.702 513.147, 787.300 516.311, 787.999 517.998 C 788.698 519.684, 789.467 520.867, 789.708 520.625 C 791.081 519.252, 780.873 507, 778.356 507 C 778.005 507, 779.746 508.785, 782.224 510.966 M 753.033 510.626 C 751.317 512.070, 749.032 514.977, 747.956 517.086 C 744.963 522.954, 745.649 523.146, 748.962 517.368 C 750.581 514.545, 753.165 511.297, 754.703 510.149 C 756.241 509.002, 757.197 508.049, 756.827 508.032 C 756.456 508.014, 754.749 509.182, 753.033 510.626 M 948.208 541.250 L 948 551 957.750 550.792 L 967.500 550.585 958.287 550.255 L 949.074 549.926 948.745 540.713 L 948.415 531.500 948.208 541.250 M 788.489 537.035 C 787.459 540.280, 781.410 546.587, 777.957 548.018 C 776.295 548.706, 775.133 549.467, 775.375 549.708 C 776.201 550.534, 781.497 547.174, 784.630 543.835 C 788.023 540.220, 790.455 536.122, 789.672 535.339 C 789.403 535.070, 788.870 535.833, 788.489 537.035 M 1287.287 550.740 C 1290.469 550.939, 1295.419 550.937, 1298.287 550.736 C 1301.154 550.535, 1298.550 550.372, 1292.500 550.374 C 1286.450 550.376, 1284.104 550.541, 1287.287 550.740" stroke="none" fill="#c3c5ec" fill-rule="evenodd"/><path d="M 17 386 L 17 571 202 571 L 387 571 387 386 L 387 201 202 201 L 17 201 17 386 M 54 293.247 L 54 348.493 109 293.500 C 139.250 263.254, 164 238.393, 164 238.253 C 164 238.114, 139.250 238, 109 238 L 54 238 54 293.247 M 131.724 315.776 L 53.952 393.553 54.226 411.280 L 54.500 429.007 149.998 333.504 L 245.496 238 227.496 238 L 209.495 238 131.724 315.776 M 172.726 356.315 L 53.952 474.551 54.226 492.278 L 54.500 510.006 190.499 374.003 L 326.497 238 308.999 238.040 L 291.500 238.080 172.726 356.315 M 286.247 324.253 L 223 387.506 286.500 451 L 350 514.494 350 387.747 C 350 318.036, 349.886 261, 349.747 261 C 349.608 261, 321.033 289.464, 286.247 324.253 M 190.737 419.762 L 182.016 428.523 234.762 481.262 L 287.507 534 305.500 534 L 323.494 534 262 472.500 C 228.178 438.675, 200.270 411, 199.982 411 C 199.694 411, 195.534 414.943, 190.737 419.762 M 150.511 459.959 L 141.523 469.019 174.038 501.534 L 206.553 534.049 224.026 533.775 L 241.500 533.500 200.500 492.200 L 159.500 450.900 150.511 459.959 M 1368.332 483.896 C 1359.442 486.192, 1351.131 494.102, 1348.887 502.404 C 1347.383 507.967, 1348.370 516.106, 1351.146 521.046 C 1354.277 526.616, 1362.866 532.124, 1374.429 535.976 C 1388.637 540.710, 1392.082 544.430, 1386.399 548.901 C 1379.438 554.376, 1368.762 551.808, 1363 543.274 L 1361.500 541.053 1352.785 546.135 L 1344.071 551.218 1345.994 554.987 C 1348.422 559.747, 1356.140 566.659, 1362 569.321 C 1365.023 570.694, 1369.349 571.509, 1375.179 571.802 C 1392.692 572.682, 1404.442 566.261, 1408.411 553.643 C 1411.390 544.174, 1409.097 535.278, 1401.830 528.109 C 1397.707 524.041, 1393.358 521.770, 1382.200 517.859 C 1369.794 513.510, 1365.976 509.231, 1371.223 505.557 C 1375.976 502.227, 1384.151 504.390, 1387.641 509.901 L 1389.525 512.878 1397.824 508.044 C 1402.389 505.385, 1406.354 502.980, 1406.635 502.698 C 1408.737 500.597, 1397.555 489.018, 1390.343 485.828 C 1385.367 483.626, 1373.431 482.579, 1368.332 483.896 M 583.500 485.322 C 562.254 490.759, 548.031 512.520, 551.122 534.859 C 552.496 544.790, 556.853 552.751, 565.086 560.373 C 573.759 568.403, 579.959 571.010, 592.136 571.744 C 602.758 572.384, 611.700 569.953, 620 564.167 C 625.226 560.524, 632.984 551.725, 632.995 549.429 C 632.998 548.840, 629.108 546.173, 624.352 543.503 L 615.703 538.649 612.638 542.469 C 608.675 547.409, 601.046 550.984, 594.500 550.968 C 580.176 550.933, 568.865 537.120, 571.933 523.408 C 573.355 517.054, 579.448 509.610, 585.461 506.878 C 594.132 502.940, 606.665 505.927, 612.582 513.343 L 615.416 516.895 624.198 512.197 C 629.028 509.614, 632.985 507.124, 632.990 506.663 C 633.013 504.715, 626.186 496.573, 621.879 493.411 C 613.462 487.232, 606.713 484.773, 597.120 484.389 C 592.183 484.191, 586.364 484.590, 583.500 485.322 M 756.024 485.540 C 741.241 489.683, 729.350 501.745, 725.542 516.460 C 721.506 532.060, 725.641 547.429, 737.011 559.078 C 746.308 568.604, 757.343 572.605, 772.239 571.853 C 786.964 571.109, 801.371 560.884, 808.299 546.259 C 811.323 539.873, 811.500 538.865, 811.500 528 C 811.500 517.121, 811.326 516.133, 808.278 509.698 C 804.001 500.667, 795.336 491.988, 786.443 487.827 C 780.836 485.203, 778.338 484.654, 770.642 484.357 C 764.485 484.120, 759.712 484.506, 756.024 485.540 M 406 528 L 406 571 416.500 571 L 427 571 427 560.893 L 427 550.786 430.916 545.869 L 434.831 540.951 446.448 555.975 L 458.065 571 471.155 571 C 481.482 571, 484.038 570.736, 483.267 569.750 C 475.622 559.979, 449.680 525.330, 449.334 524.429 C 449.079 523.764, 455.650 514.832, 463.935 504.580 C 472.221 494.328, 479 485.728, 479 485.470 C 479 485.211, 473.175 485, 466.056 485 L 453.113 485 440.306 500.563 L 427.500 516.126 427.225 500.563 L 426.949 485 416.475 485 L 406 485 406 528 M 655 528 L 655 571 682 571 L 709 571 709 561 L 709 551 692.500 551 L 676 551 676 518 L 676 485 665.500 485 L 655 485 655 528 M 834.199 517.750 C 834.491 549.535, 834.567 550.624, 836.757 554.723 C 839.967 560.731, 845.443 565.846, 851.914 568.880 C 856.830 571.186, 858.760 571.500, 868 571.500 C 876.598 571.500, 879.315 571.117, 883 569.388 C 889.379 566.395, 896.437 559.781, 899.166 554.239 C 901.441 549.619, 901.508 548.689, 901.824 517.250 L 902.147 485 891.574 485 L 881 485 881 514.566 C 881 532.931, 880.610 544.860, 879.970 546.055 C 876.686 552.193, 862.790 552.790, 857.040 547.040 C 855.077 545.077, 855 543.862, 855 515 L 855 485 844.449 485 L 833.899 485 834.199 517.750 M 927 527.936 L 927 571 945.750 570.992 C 956.063 570.988, 967.425 570.518, 971 569.948 C 989.876 566.938, 1003.781 553.582, 1007.205 535.174 C 1010.589 516.978, 999.912 497.063, 982.302 488.722 L 975.500 485.500 951.250 485.186 L 927 484.871 927 527.936 M 1082 528 L 1082 571 1109 571 L 1136 571 1136 561 L 1136 551 1119.500 551 L 1103 551 1103 518 L 1103 485 1092.500 485 L 1082 485 1082 528 M 1185.523 486.750 C 1183.550 491.743, 1155 570.143, 1155 570.568 C 1155 570.841, 1160.039 570.938, 1166.197 570.783 L 1177.395 570.500 1179.947 563.252 L 1182.500 556.004 1197.500 556.004 L 1212.500 556.004 1215.052 563.252 L 1217.605 570.500 1227.966 570.787 C 1233.664 570.945, 1238.662 570.720, 1239.073 570.287 C 1239.736 569.588, 1235.511 557.606, 1214.377 500.250 L 1208.758 485 1197.486 485 C 1187.681 485, 1186.124 485.228, 1185.523 486.750 M 1261 528 L 1261 571 1280.250 570.994 C 1290.838 570.991, 1302.200 570.547, 1305.500 570.007 C 1324.308 566.930, 1334.030 544.184, 1323.242 528.500 L 1320.491 524.500 1322.202 519.500 C 1324.748 512.058, 1324.488 505.371, 1321.412 499.199 C 1318.403 493.160, 1312.159 487.416, 1307.065 486.002 C 1305.104 485.457, 1293.938 485.009, 1282.250 485.006 L 1261 485 1261 528 M 97.500 513 L 76.518 534 118.500 534 L 160.482 534 139.500 513 C 127.960 501.450, 118.510 492, 118.500 492 C 118.490 492, 109.040 501.450, 97.500 513 M 758.459 507.367 C 737.357 517.194, 742.753 548.626, 765.904 550.725 C 773.215 551.388, 778.083 549.821, 783.287 545.129 C 788.497 540.432, 790.956 534.939, 790.956 528 C 790.956 510.931, 773.969 500.145, 758.459 507.367 M 948 528 L 948 551 956.818 551 C 968.064 551, 974.576 549.085, 979.461 544.341 C 987.069 536.952, 988.930 527.624, 984.617 518.500 C 979.676 508.049, 973.785 505, 958.532 505 L 948 505 948 528 M 1282 511 L 1282 517 1291.500 517 C 1299.667 517, 1301.281 516.719, 1303 515 C 1305.397 512.603, 1305.593 508.736, 1303.429 506.571 C 1302.211 505.354, 1299.621 505, 1291.929 505 L 1282 505 1282 511 M 1194.239 524.226 C 1192.564 528.777, 1190.876 533.288, 1190.490 534.250 C 1189.856 535.825, 1190.546 536, 1197.375 536 L 1204.964 536 1201.455 526.306 C 1199.525 520.975, 1197.797 516.464, 1197.615 516.282 C 1197.434 516.100, 1195.914 519.675, 1194.239 524.226 M 500.667 532.667 C 500.300 533.033, 500 536.858, 500 541.167 L 500 549 515 549 L 530 549 530 540.500 L 530 532 515.667 532 C 507.783 532, 501.033 532.300, 500.667 532.667 M 1029 540.500 L 1029 549 1043.500 549 L 1058 549 1058 540.500 L 1058 532 1043.500 532 L 1029 532 1029 540.500 M 1282 543.500 L 1282 551 1292.545 551 C 1302.409 551, 1303.250 550.841, 1305.545 548.545 C 1308.545 545.546, 1308.677 542.130, 1305.927 538.635 C 1303.914 536.076, 1303.541 536, 1292.927 536 L 1282 536 1282 543.500" stroke="none" fill="#5d70db" fill-rule="evenodd"/></svg>